<svg width="60" height="60" viewBox="0 0 60 60" fill="none" xmlns="http://www.w3.org/2000/svg">
<path fill-rule="evenodd" clip-rule="evenodd" d="M8.37209 20.2734C8.37209 8.9376 18.1994 0 30 0C41.8006 0 51.6279 8.9376 51.6279 20.2734C51.6279 30.9091 45.0338 43.3955 34.3948 47.942C31.6017 49.1356 28.3983 49.1356 25.6052 47.942C14.9662 43.3955 8.37209 30.9091 8.37209 20.2734ZM30 4.18605C20.2229 4.18605 12.5581 11.5277 12.5581 20.2734C12.5581 29.5618 18.4338 40.3251 27.2502 44.0927C28.9926 44.8373 31.0074 44.8373 32.7498 44.0927C41.5662 40.3251 47.4419 29.5618 47.4419 20.2734C47.4419 11.5277 39.7771 4.18605 30 4.18605ZM30 18.1395C28.0734 18.1395 26.5116 19.7013 26.5116 21.6279C26.5116 23.5545 28.0734 25.1163 30 25.1163C31.9266 25.1163 33.4884 23.5545 33.4884 21.6279C33.4884 19.7013 31.9266 18.1395 30 18.1395ZM22.3256 21.6279C22.3256 17.3894 25.7615 13.9535 30 13.9535C34.2385 13.9535 37.6744 17.3894 37.6744 21.6279C37.6744 25.8664 34.2385 29.3023 30 29.3023C25.7615 29.3023 22.3256 25.8664 22.3256 21.6279ZM6.54533 38.3626C7.32122 39.2194 7.25559 40.543 6.39873 41.3189C4.81448 42.7535 4.18605 44.1267 4.18605 45.3488C4.18605 47.48 6.20654 50.1065 11.1257 52.3201C15.8484 54.4453 22.5196 55.8139 30 55.8139C37.4804 55.8139 44.1516 54.4453 48.8743 52.3201C53.7935 50.1065 55.8139 47.48 55.8139 45.3488C55.8139 44.1267 55.1855 42.7535 53.6013 41.3189C52.7444 40.543 52.6788 39.2194 53.4547 38.3626C54.2306 37.5057 55.5542 37.4401 56.411 38.216C58.5403 40.1441 60 42.5612 60 45.3488C60 50.1533 55.7733 53.8059 50.5921 56.1375C45.2145 58.5574 37.9322 60 30 60C22.0678 60 14.7855 58.5574 9.40788 56.1375C4.2267 53.8059 0 50.1533 0 45.3488C0 42.5612 1.45967 40.1441 3.58898 38.216C4.44584 37.4401 5.76944 37.5057 6.54533 38.3626Z" fill="#48AE5A"/>
</svg>
