<svg width="76" height="76" fill="none" version="1.1" viewBox="0 0 76 76" xmlns="http://www.w3.org/2000/svg">
 <g clip-path="url(#clip0_306_5195)">
  <path d="m61.321 7.7862c2.4487 1.92 4.1362 5.0212 4.8262 8.2688 0.0835 0.0264 0.165 0.059 0.2438 0.0975l7.6687 3.5475c0.4286 0.1968 0.792 0.5122 1.0472 0.9089s0.3915 0.8582 0.3928 1.3298v46.376c-0.0027 0.3852-0.0947 0.7646-0.2687 1.1083-0.174 0.3438-0.4252 0.6425-0.734 0.8729-0.3088 0.2303-0.6668 0.3859-1.0459 0.4547-0.379 0.0688-0.7689 0.0488-1.1389-0.0584l-21.259-6-25.275 6.9675c-0.4561 0.1252-0.9381 0.1201-1.3913-0.015l-22.11-6.5813c-0.51105-0.1501-0.96004-0.461-1.2803-0.8866-0.32023-0.4257-0.49461-0.9432-0.49723-1.4759v-47.209c0-1.65 1.605-2.835 3.2062-2.37l21.383 6.2287 10.867-3.3262c0.1496-0.0442 0.3027-0.0755 0.4575-0.0938 0.42-2.46 1.5938-4.8225 3.5625-7.125 2.3363-2.7375 6.435-4.3425 10.429-4.5338 4.1437-0.19875 7.3088 0.68625 10.912 3.51m-55.819 11.021v42.056l18.262 5.4337v-42.176l-18.262-5.3138zm30.784 2.3025-7.5225 2.2988v42.296l18.994-5.2275v-12.356c0-1.365 1.1213-2.4713 2.5013-2.4713s2.4975 1.1063 2.4975 2.475v11.914l17.749 5.0062v-41.531l-4.2-1.95c-0.0713 0.4125-0.1613 0.8175-0.2738 1.2112-0.8155 2.8754-2.1835 5.5643-4.0275 7.9163l-9.2887 11.599c-0.2446 0.305-0.557 0.5487-0.9123 0.7117-0.3553 0.1631-0.7437 0.2409-1.1344 0.2275-0.3907-0.0135-0.7728-0.118-1.1161-0.3051-0.3432-0.1871-0.638-0.4517-0.861-0.7728l-8.6813-12.574c-1.4325-2.0025-2.4374-3.7875-3.0037-5.385-0.3554-0.997-0.597-2.0311-0.72-3.0825zm14.362-11.891c-2.7225 0.13125-5.52 1.2262-6.8512 2.7825-1.6013 1.875-2.3888 3.63-2.5463 5.4075-0.1875 2.1412-0.06 3.6525 0.4725 5.1487 0.3938 1.1063 1.1775 2.5088 2.3887 4.2l6.7913 9.8325 7.1625-8.9437c1.445-1.8467 2.5162-3.9573 3.1538-6.2138 0.8999-3.15-0.4575-7.7775-3.0001-9.765-2.6062-2.0437-4.5749-2.595-7.5674-2.4487m0.5174 2.6137c4.14 0 7.5 3.3188 7.5 7.4138-0.0054 0.9793-0.2037 1.948-0.5835 2.8507-0.3799 0.9026-0.9339 1.7216-1.6304 2.4101-0.6965 0.6884-1.5218 1.2329-2.4288 1.6024-0.907 0.3694-1.8779 0.5565-2.8573 0.5505-4.14 0-7.5-3.3187-7.5-7.4137s3.36-7.4138 7.5-7.4138zm0 4.9425c-0.3265-0.0019-0.6501 0.0604-0.9525 0.1835-0.3024 0.1232-0.5776 0.3047-0.8099 0.5341-0.2323 0.2295-0.4171 0.5025-0.5438 0.8034-0.1268 0.3009-0.193 0.6238-0.195 0.9503 0 1.365 1.1212 2.4712 2.5012 2.4712 0.3265 0.0015 0.6501-0.0613 0.9524-0.1849 0.3022-0.1236 0.5771-0.3055 0.809-0.5353s0.4163-0.5031 0.5426-0.8042c0.1263-0.301 0.1921-0.6241 0.1935-0.9506-0.0049-0.658-0.2706-1.2873-0.7387-1.7499-0.4682-0.4625-1.1006-0.7205-1.7588-0.7176z" fill="#48AE5A"/>
 </g>
 <defs>
  <clipPath id="clip0_306_5195">
   <rect transform="translate(.5 .5)" width="75" height="75" fill="#fff"/>
  </clipPath>
 </defs>
</svg>
