<svg width="66" height="65" viewBox="0 0 66 65" fill="none" xmlns="http://www.w3.org/2000/svg">
<path d="M24.875 8.125H11.3333C10.615 8.125 9.92616 8.41034 9.41825 8.91825C8.91034 9.42616 8.625 10.115 8.625 10.8333V24.375C8.625 25.0933 8.91034 25.7822 9.41825 26.2901C9.92616 26.798 10.615 27.0833 11.3333 27.0833H24.875C25.5933 27.0833 26.2822 26.798 26.7901 26.2901C27.298 25.7822 27.5833 25.0933 27.5833 24.375V10.8333C27.5833 10.115 27.298 9.42616 26.7901 8.91825C26.2822 8.41034 25.5933 8.125 24.875 8.125ZM24.875 37.9167H11.3333C10.615 37.9167 9.92616 38.202 9.41825 38.7099C8.91034 39.2178 8.625 39.9067 8.625 40.625V54.1667C8.625 54.885 8.91034 55.5738 9.41825 56.0817C9.92616 56.5897 10.615 56.875 11.3333 56.875H24.875C25.5933 56.875 26.2822 56.5897 26.7901 56.0817C27.298 55.5738 27.5833 54.885 27.5833 54.1667V40.625C27.5833 39.9067 27.298 39.2178 26.7901 38.7099C26.2822 38.202 25.5933 37.9167 24.875 37.9167ZM47.8958 27.0833C49.1407 27.0833 50.3733 26.8381 51.5234 26.3618C52.6734 25.8854 53.7184 25.1872 54.5986 24.3069C55.4788 23.4267 56.1771 22.3818 56.6534 21.2317C57.1298 20.0816 57.375 18.849 57.375 17.6042C57.375 16.3593 57.1298 15.1267 56.6534 13.9766C56.1771 12.8266 55.4788 11.7816 54.5986 10.9014C53.7184 10.0212 52.6734 9.32293 51.5234 8.84656C50.3733 8.37019 49.1407 8.125 47.8958 8.125C45.3818 8.125 42.9707 9.1237 41.193 10.9014C39.4154 12.6791 38.4167 15.0901 38.4167 17.6042C38.4167 20.1182 39.4154 22.5293 41.193 24.3069C42.9707 26.0846 45.3818 27.0833 47.8958 27.0833ZM54.6667 37.9167H41.125C40.4067 37.9167 39.7178 38.202 39.2099 38.7099C38.702 39.2178 38.4167 39.9067 38.4167 40.625V54.1667C38.4167 54.885 38.702 55.5738 39.2099 56.0817C39.7178 56.5897 40.4067 56.875 41.125 56.875H54.6667C55.385 56.875 56.0738 56.5897 56.5817 56.0817C57.0897 55.5738 57.375 54.885 57.375 54.1667V40.625C57.375 39.9067 57.0897 39.2178 56.5817 38.7099C56.0738 38.202 55.385 37.9167 54.6667 37.9167Z" stroke="#48AE5A" stroke-width="5" stroke-linejoin="round"/>
</svg>
