<?xml version="1.0" encoding="UTF-8"?>
<!-- Created with Inkscape (http://www.inkscape.org/) -->
<svg width="26" height="26" version="1.1" viewBox="0 0 6.8792 6.8792" xmlns="http://www.w3.org/2000/svg">
 <g stroke="#000" stroke-dashoffset=".54614" stroke-linecap="round" stroke-linejoin="round">
  <rect transform="matrix(.69938 .71475 -.70684 .70738 0 0)" x="4.3001" y="-3.9481" width="1.1402" height="1.2442" ry=".13438" stroke-width=".057402"/>
  <path transform="matrix(1.3598 1.3897 -1.9746 1.9761 3.931 -6.0468)" x="3.0246315" y="0.88137239" width="0.49679676" height="0.34571958" rx="0" ry="0.14821973" d="m3.1735 0.88137h0.19913c3.385e-4 0 8.873e-4 -1.3e-7 0.00123 1.23e-6 0.08164 3.272e-4 0.1473 0.066003 0.14761 0.14765 1.2e-6 3.147e-4 1.1e-6 8.442e-4 1.1e-6 0.00118v0.048054c0 3.384e-4 1e-7 8.872e-4 -1.3e-6 0.00123-3.272e-4 0.08164-0.066003 0.1473-0.14765 0.14761-3.147e-4 1.2e-6 -8.443e-4 1.1e-6 -0.00118 1.1e-6h-0.19914c-3.385e-4 0-8.873e-4 1e-7 -0.00123-1.3e-6 -0.08164-3.272e-4 -0.1473-0.066003-0.14761-0.14765-1.2e-6 -3.147e-4 -1.1e-6 -8.443e-4 -1.1e-6 -0.00118v-0.048058c0-3.385e-4 -1e-7 -8.873e-4 1.2e-6 -0.00123 3.272e-4 -0.08164 0.066003-0.1473 0.14765-0.14761 3.147e-4 -1.17e-6 8.442e-4 -1.06e-6 0.00118-1.06e-6z" fill="none" stroke-width=".03237"/>
  <g stroke-width=".039355">
   <path d="m0.82371 5.3238-0.18385 0.50328 0.52924-0.3705-0.3562 0.55807 0.56828-0.35845-0.35625 0.56873 0.53016-0.20045-1.5354 0.83507z"/>
   <path d="m1.5564 6.0239 4.7652-4.7477-0.71862-0.73441-4.776 4.7796" fill="none"/>
   <path d="m0.035958 6.8484 0.33128-0.18191-0.15504-0.16135z" fill="#fff"/>
  </g>
  <path d="m1.1493 5.4736 4.0018-4.0514" fill="none" stroke-width=".02"/>
  <path d="m1.3725 5.672 4.0432-3.9936" fill="none" stroke-width=".02"/>
 </g>
</svg>
