<svg width="60" height="60" viewBox="0 0 60 60" fill="none" xmlns="http://www.w3.org/2000/svg">
<path d="M9.99996 30.0625C9.99996 33.6042 10.8858 36.8958 12.6575 39.9375C14.4291 42.9792 16.835 45.4167 19.875 47.25C20.4583 47.625 20.865 48.1358 21.095 48.7825C21.325 49.4292 21.2725 50.0433 20.9375 50.625C20.6041 51.25 20.0941 51.6567 19.4075 51.845C18.7208 52.0333 18.0641 51.96 17.4375 51.625C13.5625 49.375 10.5208 46.3333 8.31246 42.5C6.10412 38.6667 4.99996 34.5208 4.99996 30.0625C4.99996 28.9792 5.07329 27.9167 5.21996 26.875C5.36662 25.8333 5.56412 24.7917 5.81246 23.75L4.99996 24.25C4.41662 24.625 3.79162 24.7192 3.12496 24.5325C2.45829 24.3458 1.95829 23.96 1.62496 23.375C1.29162 22.7917 1.21829 22.1558 1.40496 21.4675C1.59162 20.7792 1.97746 20.2692 2.56246 19.9375L10.125 15.5625C10.7083 15.2292 11.3441 15.1567 12.0325 15.345C12.7208 15.5333 13.2308 15.9183 13.5625 16.5L17.9375 24C18.2708 24.5833 18.3441 25.2192 18.1575 25.9075C17.9708 26.5958 17.585 27.1058 17 27.4375C16.4166 27.7708 15.7816 27.8442 15.095 27.6575C14.4083 27.4708 13.8975 27.085 13.5625 26.5L11.4375 22.8125C10.9791 23.9792 10.625 25.1667 10.375 26.375C10.125 27.5833 9.99996 28.8125 9.99996 30.0625ZM30 10C28.2916 10 26.6041 10.2192 24.9375 10.6575C23.2708 11.0958 21.6875 11.7308 20.1875 12.5625C19.5625 12.8958 18.9066 13.0108 18.22 12.9075C17.5333 12.8042 17.0225 12.46 16.6875 11.875C16.3125 11.2083 16.2291 10.5317 16.4375 9.845C16.6458 9.15833 17.0833 8.62667 17.75 8.25C19.625 7.16667 21.5941 6.35417 23.6575 5.8125C25.7208 5.27083 27.835 5 30 5C33.2916 5 36.4483 5.615 39.47 6.845C42.4916 8.075 45.1891 9.85583 47.5625 12.1875V11.25C47.5625 10.5417 47.8025 9.94833 48.2825 9.47C48.7625 8.99167 49.3558 8.75167 50.0625 8.75C50.7708 8.75 51.365 8.99 51.845 9.47C52.325 9.95 52.5641 10.5433 52.5625 11.25V20C52.5625 20.7083 52.3233 21.3025 51.845 21.7825C51.3666 22.2625 50.7725 22.5017 50.0625 22.5H41.3125C40.6041 22.5 40.0108 22.26 39.5325 21.78C39.0541 21.3 38.8141 20.7067 38.8125 20C38.8125 19.2917 39.0525 18.6983 39.5325 18.22C40.0125 17.7417 40.6058 17.5017 41.3125 17.5H45.625C43.7083 15.125 41.3958 13.2817 38.6875 11.97C35.9791 10.6583 33.0833 10.0017 30 10ZM45.125 43.1875C46.7083 41.3542 47.9166 39.3333 48.75 37.125C49.5833 34.9167 50 32.6042 50 30.1875C50 29.4792 50.24 28.8542 50.72 28.3125C51.2 27.7708 51.7933 27.5 52.5 27.5C53.2083 27.5 53.8025 27.7708 54.2825 28.3125C54.7625 28.8542 55.0016 29.4792 55 30.1875C55 32.8958 54.5725 35.51 53.7175 38.03C52.8625 40.55 51.6233 42.8942 50 45.0625C48.375 47.2292 46.4483 49.0833 44.22 50.625C41.9916 52.1667 39.5641 53.3125 36.9375 54.0625L37.5625 54.4375C38.1458 54.7708 38.5208 55.2817 38.6875 55.97C38.8541 56.6583 38.7708 57.2933 38.4375 57.875C38.1041 58.4583 37.6041 58.8333 36.9375 59C36.2708 59.1667 35.6458 59.0833 35.0625 58.75L27.4375 54.375C26.8541 54.0417 26.4691 53.5308 26.2825 52.8425C26.0958 52.1542 26.1683 51.5192 26.5 50.9375L30.875 43.375C31.2083 42.7917 31.7083 42.4167 32.375 42.25C33.0416 42.0833 33.6666 42.1667 34.25 42.5C34.8333 42.8333 35.2191 43.3442 35.4075 44.0325C35.5958 44.7208 35.5225 45.3558 35.1875 45.9375L32.875 49.875C35.25 49.5417 37.49 48.8017 39.595 47.655C41.7 46.5083 43.5433 45.0192 45.125 43.1875Z" fill="#48AE5A"/>
</svg>
