<?xml version="1.0" encoding="UTF-8"?>
<!-- Created with Inkscape (http://www.inkscape.org/) -->
<svg width="32" height="32" version="1.1" viewBox="0 0 8.4667 8.4667" xml:space="preserve" xmlns="http://www.w3.org/2000/svg" xmlns:xlink="http://www.w3.org/1999/xlink"><defs><linearGradient id="linearGradient4"><stop stop-color="#1e4e24" offset="0"/><stop stop-color="#fff" offset=".79726"/></linearGradient><linearGradient id="linearGradient1"><stop stop-color="#48ae5a" offset="0"/><stop stop-color="#b3e2bd" stop-opacity=".85631" offset=".49415"/></linearGradient><radialGradient id="radialGradient2" cx="1.8539" cy="-5.0497" r="3.4406" gradientTransform="matrix(1.1747 1.8807 -1.1557 1.2514 -3.7168 7.0014)" gradientUnits="userSpaceOnUse" xlink:href="#linearGradient1"/><linearGradient id="linearGradient5" x1="3.8693" x2=".048852" y1="-3.3139" y2="-7.1946" gradientTransform="matrix(1.2163 0 0 1.6015 1.8525 12.449)" gradientUnits="userSpaceOnUse" xlink:href="#linearGradient4"/><linearGradient id="linearGradient9" x1="3.8693" x2=".048852" y1="-3.3139" y2="-7.1946" gradientTransform="matrix(1.2163 0 0 1.6015 1.9156 12.385)" gradientUnits="userSpaceOnUse" xlink:href="#linearGradient4"/><radialGradient id="radialGradient16" cx="1.8539" cy="-5.0497" r="3.4406" gradientTransform="matrix(1.1747 1.8807 -1.1557 1.2514 -3.7799 7.0656)" gradientUnits="userSpaceOnUse" xlink:href="#linearGradient1"/><radialGradient id="radialGradient20" cx="1.8539" cy="-5.0497" r="3.4406" gradientTransform="matrix(1.1747 1.8807 -1.1557 1.2514 -3.7116 7.0003)" gradientUnits="userSpaceOnUse" xlink:href="#linearGradient1"/><filter id="filter20" x="-.038385" y="-.050874" width="1.0766" height="1.1017" color-interpolation-filters="sRGB"><feGaussianBlur stdDeviation="0.082814828"/></filter></defs><g><path transform="matrix(1.0169 0 0 1.0169 -.10885 -.020032)" d="m1.7236 1.4729 4.1547-0.0068c0.69382 0 1.1959 0.12974 1.5062 0.38922 0.30949 0.2596 0.42075 0.58491 0.32941 0.96736-0.075475 0.32306-0.27209 0.60022-0.58984 0.8315-0.1024 0.07329-0.21299 0.13619-0.32991 0.18763-0.03453 0.014495-0.063728 0.03795-0.084022 0.067642-0.020283 0.02965-0.030755 0.064143-0.030139 0.099249 6.608e-4 0.035123 0.012297 0.069266 0.033622 0.098292 0.021325 0.029048 0.051352 0.051663 0.086374 0.06507 0.19135 0.070959 0.36006 0.18585 0.49023 0.33386 0.19046 0.22916 0.24455 0.51743 0.16228 0.86479-0.067424 0.28721-0.21868 0.55179-0.43727 0.76489-0.23417 0.23244-0.51949 0.41565-0.83667 0.53722-0.20357 0.083238-0.49849 0.14262-0.88282 0.17997-0.51403 0.051307-0.85074 0.078736-1.0145 0.078736l-3.5896 0.00538c-0.02956 3.808e-4 -0.05882-0.00538-0.08557-0.017147-0.02675-0.01167-0.05027-0.028806-0.06877-0.050154-0.0185-0.021347-0.03151-0.046312-0.03802-0.073024-0.0065-0.026701-0.0064-0.054432 4.46e-4 -0.081077l1.2239-5.2427zm1.7394 2.1403h0.9659c0.3469 0 0.59858-0.044987 0.75551-0.13768 0.075902-0.043183 0.14129-0.10044 0.19205-0.16821 0.050758-0.067758 0.085803-0.14454 0.10287-0.22549 0.036915-0.15929 0-0.28301-0.11758-0.373-0.11758-0.089986-0.34011-0.13275-0.6773-0.13184h-0.82208c-0.04474-1.564e-4 -0.08819 0.014013-0.12297 0.040056-0.03479 0.026042-0.0588 0.062459-0.06798 0.10301l-0.20843 0.89403zm-0.50092 2.1454 1.1316-0.00241c0.38286 0 0.66466-0.053107 0.8459-0.15614 0.08376-0.043905 0.1566-0.10366 0.21377-0.17538 0.057176-0.071702 0.097406-0.15375 0.11807-0.24081 0.021011-0.070338 0.01876-0.14489-0.0065-0.21403-0.025185-0.069118-0.072202-0.12967-0.13493-0.17383-0.13216-0.098087-0.39404-0.14757-0.78322-0.14667h-0.96881c-0.04477-1.623e-4 -0.08819 0.014013-0.12297 0.040056-0.0348 0.026102-0.0588 0.062459-0.06798 0.10302l-0.22494 0.96423z" fill="#5e0a07" filter="url(#filter20)" opacity=".35208" stroke="#45221f" stroke-width=".15913"/><g fill="url(#linearGradient9)"><path d="m4.0409 7.5464v0.43925c0.0914-0.018883 0.18108-0.038736 0.26923-0.058911 0.30913-0.070746 0.80139-0.23765 1.0924-0.39222 1.0024-0.53235 2.3504-1.5189 2.8086-3.1734h-0.64906c-0.09909 0.28623-0.24286 0.56875-0.43667 0.83767-0.16474 0.22859-0.47421 0.54061-0.66818 0.72554-0.98808 0.94199-1.7617 1.4117-2.4164 1.6221z"/><path d="m0.42767 4.361h-0.22893c-0.24072 0.71634-0.2638 1.4434-0.05426 2.1823 0.04033 0.14222 0.14429 0.34421 0.22841 0.44803 1.0731 1.3245 2.493 1.237 3.668 0.99425v-0.43925c-0.71938 0.23117-1.295 0.14874-1.8531 0.034107-0.21523-0.044208-0.55533-0.16346-0.74931-0.29404-1.1497-0.77397-1.261-1.9156-1.0108-2.9254z"/><path d="m0.42767 4.361c0.21257-0.85789 0.68582-1.6205 1.0046-1.9813-0.59334 0.65158-1.0085 1.3117-1.2335 1.9813z"/></g><path d="m0.62799 3.9846h-0.20619c-0.32401 0.79597-0.37937 1.605-0.14573 2.4288 0.04033 0.14222 0.14429 0.34421 0.22841 0.44803 1.1338 1.3994 2.6546 1.2233 3.8649 0.9524v-0.46664c-0.813 0.31556-1.4419 0.22877-2.05 0.10387-0.21523-0.044208-0.55585-0.16346-0.74983-0.29404-1.2445-0.83775-1.2719-2.1066-0.94154-3.1724z" fill="url(#radialGradient20)"/><g transform="translate(.063108 -.064223)"><path d="m3.9778 0.75469c-0.32799 0.10506-0.63674 0.24323-0.9095 0.40618 0.30368-0.11809 0.60687-0.2197 0.9095-0.29197z" fill="url(#linearGradient5)"/><path d="m3.9778 0.75469v0.1142c1.0323-0.24652 2.0568-0.15361 3.0623 0.77463 0.062605 0.057792 0.15571 0.16551 0.20464 0.24288 0.43148 0.68232 0.56883 1.6301 0.25425 2.5389h0.64906c0.022328-0.080632 0.042503-0.16267 0.060461-0.2465 0.087415-0.40806 0.091423-1.1084 5.168e-4 -1.5152-0.47705-2.1348-2.5927-2.4338-4.2313-1.9089z" fill="url(#linearGradient5)"/><path d="m4.301 0.56741c-0.40119 0.10982-0.78015 0.26936-1.1069 0.46457 0.36957-0.14371 0.73898-0.26251 1.1069-0.33435z" fill="url(#radialGradient16)"/><path d="m4.301 0.56741v0.13022c0.96566-0.18855 1.9239-0.052191 2.8655 0.817 0.0626 0.057792 0.1552 0.16551 0.20412 0.24288 0.39255 0.62076 0.5423 1.4615 0.32918 2.2924h0.6351c0.087415-0.40806 0.091423-1.1084 5.168e-4 -1.5152-0.45815-2.0502-2.4276-2.4071-4.0344-1.9673z" fill="url(#radialGradient16)"/></g><path id="be" d="m1.8378 1.2592 4.1547-0.0068c0.69382 0 1.1959 0.12974 1.5062 0.38922 0.30949 0.2596 0.42075 0.58491 0.32941 0.96736-0.075475 0.32306-0.27209 0.60022-0.58984 0.8315-0.1024 0.07329-0.21299 0.13619-0.32991 0.18763-0.03453 0.014495-0.063728 0.03795-0.084022 0.067642-0.020283 0.02965-0.030755 0.064143-0.030139 0.099249 6.608e-4 0.035123 0.012297 0.069266 0.033622 0.098292 0.021325 0.029048 0.051352 0.051663 0.086374 0.06507 0.19135 0.070959 0.36006 0.18585 0.49023 0.33386 0.19046 0.22916 0.24455 0.51743 0.16228 0.86479-0.067424 0.28721-0.21868 0.55179-0.43727 0.76489-0.23417 0.23244-0.51949 0.41565-0.83667 0.53722-0.20357 0.083238-0.49849 0.14262-0.88282 0.17997-0.51403 0.051307-0.85074 0.078736-1.0145 0.078736l-3.5896 0.00538c-0.02956 3.808e-4 -0.05882-0.00538-0.08557-0.017147-0.02675-0.01167-0.05027-0.028806-0.06877-0.050154-0.0185-0.021347-0.03151-0.046312-0.03802-0.073024-0.0065-0.026701-0.0064-0.054432 4.46e-4 -0.081077l1.2239-5.2427zm1.7394 2.1403h0.9659c0.3469 0 0.59858-0.044987 0.75551-0.13768 0.075902-0.043183 0.14129-0.10044 0.19205-0.16821 0.050758-0.067758 0.085803-0.14454 0.10287-0.22549 0.036915-0.15929 0-0.28301-0.11758-0.373-0.11758-0.089986-0.34011-0.13275-0.6773-0.13184h-0.82208c-0.04474-1.564e-4 -0.08819 0.014013-0.12297 0.040056-0.03479 0.026042-0.0588 0.062459-0.06798 0.10301l-0.20843 0.89403zm-0.50092 2.1454 1.1316-0.00241c0.38286 0 0.66466-0.053107 0.8459-0.15614 0.08376-0.043905 0.1566-0.10366 0.21377-0.17538 0.057176-0.071702 0.097406-0.15375 0.11807-0.24081 0.021011-0.070338 0.01876-0.14489-0.0065-0.21403-0.025185-0.069118-0.072202-0.12967-0.13493-0.17383-0.13216-0.098087-0.39404-0.14757-0.78322-0.14667h-0.96881c-0.04477-1.623e-4 -0.08819 0.014013-0.12297 0.040056-0.0348 0.026102-0.0588 0.062459-0.06798 0.10302l-0.22494 0.96423z" fill="#f24942" stroke="#b35b53" stroke-width=".15913"/><path d="m0.62276 3.9857c0.23411-0.75538 0.64801-1.409 0.93586-1.7348-0.52035 0.57143-0.90386 1.1496-1.142 1.7348z" fill="url(#radialGradient2)"/><path d="m4.3641 7.3482v0.46664c0.024321-0.00544 0.048283-0.011029 0.072347-0.016536 0.30913-0.07075 0.80088-0.23817 1.0919-0.39274 1.0512-0.55829 2.4831-1.6159 2.8696-3.4199h-0.6351c-0.094921 0.37008-0.26176 0.73823-0.51108 1.0842-0.16474 0.22859-0.47421 0.54061-0.66818 0.72554-0.89082 0.84927-1.6073 1.3152-2.2195 1.5529z" fill="url(#radialGradient2)"/></g></svg>
